:SAMPLES-PER-SECOND 30
:FULLY-SPECIFIED
:DEGREES
523
root  23.7585 38.7194 0.970058 -151.888 -82.4648 143.017
RightUpLeg  -18.7802 1.53936 -6.99088
RightLeg  41.117 0.950423 0.623005
RightFoot  -3.00563 -0.631034 8.37106
RightToes  -4.65663e-010 0 -3.6325e-017
Spine  6.56856 -0.68428 -8.06317
Spine1  5.99446 -1.66064 0.397644
HEad  -0.463195 -22.3883 -9.27125
LeftShoulder1  -0.787224 5.52849 -32.7077
LeftArm  12.0685 -11.6793 -43.2699
LeftForeArm  14.8581 -24.5574 -4.41278
LeftHand  0.037307 9.37866 2.49165
RightShoulder  -0.849662 -5.91195 28.6767
RightArm  25.1258 -12.6161 45.5504
RightForeArm  11.2373 18.6251 5.20397
RightHand  -0.00770555 4.44126 -0.38012
LeftUpLeg  3.96124 6.43682 -6.00155
LeftLeg  17.2285 4.45058 0.971206
LeftFoot  -12.1117 0.122501 7.21138
LeftToes  8.74931e-010 -1.05764e-010 1.2659e-011
524
root  22.6764 38.6868 0.965352 -149.868 -83.0176 141.163
RightUpLeg  -18.8071 0.694704 -6.57016
RightLeg  30.014 1.18107 0.544795
RightFoot  -3.44431 -0.64978 9.05147
RightToes  -4.65663e-010 0 -3.6325e-017
Spine  6.33443 -0.687222 -7.84917
Spine1  6.142 -1.61413 0.845176
HEad  -0.715574 -22.9608 -8.79968
LeftShoulder1  -0.639918 5.17571 -32.1315
LeftArm  10.9814 -13.1274 -44.3456
LeftForeArm  17.0555 -26.426 -4.76569
LeftHand  0.00732965 8.50357 1.88345
RightShoulder  -0.913198 -6.05796 29.1797
RightArm  23.1988 -11.587 45.2099
RightForeArm  12.8104 16.8025 5.72022
RightHand  0.00893309 4.00715 -0.15748
LeftUpLeg  6.00841 6.55357 -5.8287
LeftLeg  16.523 4.18126 0.89126
LeftFoot  -13.304 0.209032 7.55356
LeftToes  8.74931e-010 -1.05764e-010 1.2659e-011
525
root  21.5715 38.6473 0.963716 -144.302 -83.5198 136.055
RightUpLeg  -18.4555 -0.854747 -6.43807
RightLeg  18.4289 2.37257 0.493897
RightFoot  -3.48056 -0.64122 8.97085
RightToes  -4.65663e-010 0 -3.6325e-017
Spine  5.9196 -0.80391 -7.52875
Spine1  6.15023 -1.61726 1.08907
HEad  -1.0471 -23.5274 -8.47256
LeftShoulder1  -0.639115 5.17753 -32.0258
LeftArm  11.4555 -14.3258 -44.9553
LeftForeArm  17.6588 -28.0679 -5.10288
LeftHand  -0.00572849 7.98842 1.59606
RightShoulder  -0.864673 -5.90849 29.3573
RightArm  20.0493 -10.8426 45.3781
RightForeArm  15.8625 14.5491 6.22853
RightHand  0.0549618 3.86547 0.413924
LeftUpLeg  8.009 6.40402 -5.9649
LeftLeg  15.2716 3.51603 0.612781
LeftFoot  -14.46 0.286162 7.29928
LeftToes  8.74931e-010 -1.05764e-010 1.2659e-011
526
root  20.4092 38.5959 0.935714 -137.587 -84.0659 130.066
RightUpLeg  -17.9584 -3.7507 -5.61285
RightLeg  7.26051 6.49852 -0.0937126
RightFoot  -3.43345 -0.619603 8.60661
RightToes  -4.65663e-010 0 -3.6325e-017
Spine  5.05145 -0.883244 -6.93663
Spine1  6.28925 -1.61011 1.44128
HEad  -0.909973 -24.3244 -8.51778
LeftShoulder1  -0.693935 5.30465 -32.3787
LeftArm  12.748 -14.9795 -45.3242
LeftForeArm  17.7598 -29.2994 -5.38323
LeftHand  -0.00286958 7.84421 1.72179
RightShoulder  -0.844969 -5.85425 29.3405
RightArm  17.6497 -10.3171 45.4896
RightForeArm  18.1653 12.5072 6.61155
RightHand  0.00962397 3.36497 -0.117011
LeftUpLeg  9.9876 6.62998 -5.67715
LeftLeg  13.724 2.4465 0.00387503
LeftFoot  -15.493 0.353126 7.15784
LeftToes  8.74931e-010 -1.05764e-010 1.2659e-011
527
root  19.197 38.4859 0.893128 -127.384 -84.7725 120.198
RightUpLeg  -17.3004 -6.38404 -4.99809
RightLeg  -0.934482 11.0083 -1.08095
RightFoot  -4.50848 -0.581732 9.2399
RightToes  -4.65663e-010 0 -3.6325e-017
Spine  4.7984 -0.860279 -6.02546
Spine1  6.18919 -1.52685 1.56388
HEad  -0.83302 -25.6297 -8.97332
LeftShoulder1  -0.655867 5.21325 -32.214
LeftArm  14.0866 -14.636 -46.2749
LeftForeArm  18.6905 -30.3469 -5.57978
LeftHand  -0.0156163 6.9358 1.51751
RightShoulder  -0.888384 -5.96576 29.4944
RightArm  16.1899 -10.1431 45.2285
RightForeArm  19.649 11.216 6.72893
RightHand  0.0233629 3.98918 0.0179158
LeftUpLeg  12.2967 6.59149 -5.40895
LeftLeg  12.4687 1.13096 -0.151023
LeftFoot  -16.7193 0.424835 6.89628
LeftToes  8.74931e-010 -1.05764e-010 1.2659e-011
528
root  17.9273 38.2428 0.775859 -113.134 -85.4419 105.954
RightUpLeg  -17.4067 -6.76859 -5.26288
RightLeg  -2.05944 9.98548 -0.853903
RightFoot  -5.63888 -0.507777 9.46441
RightToes  -4.65663e-010 0 -3.6325e-017
Spine  5.05897 -0.811467 -5.21653
Spine1  6.05597 -1.4619 1.59154
HEad  -1.23098 -27.0218 -8.87478
LeftShoulder1  -0.677959 5.26232 -32.3989
LeftArm  16.2828 -14.1823 -47.0153
LeftForeArm  17.8892 -30.8736 -5.75211
LeftHand  0.000213517 7.4422 2.14666
RightShoulder  -0.886202 -5.96263 29.4509
RightArm  15.8749 -10.0375 44.9871
RightForeArm  19.9283 10.8589 6.75342
RightHand  0.0203051 3.13118 0.0503626
LeftUpLeg  14.3501 6.62772 -4.86992
LeftLeg  12.7881 -0.423211 -0.0443913
LeftFoot  -18.7647 0.528405 6.41162
LeftToes  8.74931e-010 -1.05764e-010 1.2659e-011
529
root  16.6124 37.9685 0.610738 -97.7001 -86.1208 90.6555
RightUpLeg  -18.7331 -6.51353 -4.94434
RightLeg  3.52671 4.1993 -0.13386
RightFoot  -3.43811 -0.48268 6.58576
RightToes  -4.65663e-010 0 -3.6325e-017
Spine  5.00924 -0.771024 -3.97565
Spine1  6.3263 -1.39805 1.54663
HEad  -1.58353 -29.0694 -9.34537
LeftShoulder1  -0.655213 5.19893 -32.4992
LeftArm  18.1605 -13.0803 -47.7278
LeftForeArm  17.4499 -30.6223 -5.71605
LeftHand  0.00310674 7.44225 2.29705
RightShoulder  -0.868514 -5.90529 29.5663
RightArm  15.9508 -9.68473 44.6841
RightForeArm  20.2325 10.9031 6.75055
RightHand  0.0500253 2.69063 0.506149
LeftUpLeg  15.9661 6.24102 -4.0247
LeftLeg  13.8471 -1.4018 0.363306
LeftFoot  -20.968 0.599694 5.61818
LeftToes  8.74931e-010 -1.05764e-010 1.2659e-011
530
root  15.2455 37.8013 0.419494 -72.6849 -86.7461 65.8094
RightUpLeg  -19.6784 -6.52865 -4.15887
RightLeg  9.17959 0.103354 -0.0962918
RightFoot  0.191437 -0.317522 3.39482
RightToes  -4.65663e-010 0 -3.6325e-017
Spine  4.69144 -0.955384 -2.27398
Spine1  6.85081 -1.63567 1.9225
HEad  -6.21291 -23.3372 -8.12817
LeftShoulder1  -0.634189 5.13734 -32.667
LeftArm  20.023 -10.8267 -47.9141
LeftForeArm  17.0686 -30.0922 -5.61002
LeftHand  0.00479802 7.57709 2.18158
RightShoulder  -0.874981 -5.9166 29.6624
RightArm  16.3167 -8.98917 44.3602
RightForeArm  20.0764 10.6928 6.9079
RightHand  0.0464597 2.76559 0.448698
LeftUpLeg  17.7117 5.04521 -2.69937
LeftLeg  14.4982 -1.79407 0.572301
LeftFoot  -22.1164 0.554247 4.45329
LeftToes  8.74931e-010 -1.05764e-010 1.2659e-011
531
root  13.8556 37.7409 0.211727 -37.5043 -86.8277 30.49
RightUpLeg  -20.1483 -8.15082 -2.96795
RightLeg  13.4646 0.648849 0.419844
RightFoot  6.34549 -0.103423 0.849267
RightToes  -4.65663e-010 0 -3.6325e-017
Spine  5.02897 -1.12259 -0.184974
Spine1  6.80884 -1.88812 2.59734
HEad  -22.225 2.39486 -2.37501
LeftShoulder1  -0.633653 5.11399 -33.2059
LeftArm  23.0173 -8.12481 -47.6748
LeftForeArm  15.0497 -28.3157 -5.29302
LeftHand  0.0424836 8.4422 3.19009
RightShoulder  -0.928722 -6.0473 29.9344
RightArm  16.4765 -8.17528 43.8275
RightForeArm  20.0181 10.017 7.16639
RightHand  0.0315674 2.93404 0.218273
LeftUpLeg  19.5524 2.24115 -1.45698
LeftLeg  15.3648 -1.09668 0.634184
LeftFoot  -22.1586 0.326367 2.06566
LeftToes  8.74931e-010 -1.05764e-010 1.2659e-011
532
root  12.3564 37.6076 0.00554525 -11.6924 -87.1994 4.29559
RightUpLeg  -20.4503 -7.90279 -1.30074
RightLeg  19.1378 1.20529 0.241672
RightFoot  5.24773 -0.0192196 0.362575
RightToes  -4.65663e-010 0 -3.6325e-017
Spine  5.09298 -0.955652 3.12419
Spine1  6.77278 -1.21025 1.29348
HEad  -22.2545 0.494131 -3.16945
LeftShoulder1  -0.605697 5.01555 -33.8958
LeftArm  25.3739 -4.84594 -47.3419
LeftForeArm  13.786 -25.2695 -4.66595
LeftHand  0.0126374 7.92157 2.44501
RightShoulder  -0.918054 -6.01326 29.9989
RightArm  15.6841 -6.84728 43.9554
RightForeArm  21.179 8.38531 7.40545
RightHand  0.0257616 2.49267 0.171947
LeftUpLeg  20.7004 0.404397 0.215209
LeftLeg  18.7548 -0.839191 0.0485613
LeftFoot  -21.936 0.00213608 -1.40665
LeftToes  8.74931e-010 -1.05764e-010 1.2659e-011
533
root  10.9389 37.5512 -0.204054 16.3538 -87.7823 -23.564
RightUpLeg  -20.6985 -6.92842 0.342251
RightLeg  23.4299 1.21458 0.348402
RightFoot  3.40972 0.225231 -1.56315
RightToes  -4.65663e-010 0 -3.6325e-017
Spine  4.96405 -0.76729 6.58945
Spine1  6.52753 -0.350711 0.0300102
HEad  -21.8719 -0.214524 -2.97184
LeftShoulder1  -0.664464 5.14199 -34.3827
LeftArm  23.987 -0.846834 -46.4581
LeftForeArm  15.5071 -20.9216 -5.21015
LeftHand  -0.0188977 7.88957 1.0057
RightShoulder  -0.917178 -5.99245 30.2647
RightArm  15.3015 -4.68731 44.3306
RightForeArm  22.6279 5.99722 7.68621
RightHand  0.00654597 1.80531 -0.0479784
LeftUpLeg  19.759 0.611768 2.2856
LeftLeg  24.3482 -1.71027 -0.551077
LeftFoot  -19.5672 -0.276138 -5.60729
LeftToes  8.74931e-010 -1.05764e-010 1.2659e-011
534
root  9.68116 37.5804 -0.473303 29.7284 -86.9848 -36.4161
RightUpLeg  -20.4245 -6.66501 1.54281
RightLeg  26.0483 0.456542 0.00932513
RightFoot  0.498205 0.235603 -2.21586
RightToes  -4.65663e-010 0 -3.6325e-017
Spine  5.02787 -0.787695 8.15503
Spine1  5.87607 -0.0847277 0.53795
HEad  -21.5836 -0.33569 -2.87702
LeftShoulder1  -0.705861 5.22837 -34.7476
LeftArm  12.445 2.57502 -45.2952
LeftForeArm  26.5591 -14.1852 -8.8783
LeftHand  -0.0304348 8.06369 0.691612
RightShoulder  -0.920835 -6.01809 30.0385
RightArm  14.7082 -2.7343 45.177
RightForeArm  23.5291 4.57386 7.58987
RightHand  -0.00886565 2.32229 -0.33273
LeftUpLeg  15.8466 0.760166 4.43985
LeftLeg  33.0251 -2.644 -1.47871
LeftFoot  -13.4673 -0.0754615 -9.2454
LeftToes  8.74931e-010 -1.05764e-010 1.2659e-011
535
root  8.48678 37.6953 -0.733033 34.0139 -85.4729 -40.5798
RightUpLeg  -18.8863 -6.4083 2.84279
RightLeg  27.0659 -0.811481 -0.689831
RightFoot  -1.99234 0.171685 -2.27475
RightToes  -4.65663e-010 0 -3.6325e-017
Spine  5.42457 -0.927022 10.2486
Spine1  5.26124 0.199756 0.195328
HEad  -21.1665 -1.44462 -2.27659
LeftShoulder1  -0.670858 5.14655 -34.6577
LeftArm  0.75322 4.97913 -44.0585
LeftForeArm  37.9528 -6.99713 -10.5747
LeftHand  -0.11319 10.0508 -1.37754
RightShoulder  -0.951154 -6.09939 30.0706
RightArm  13.9653 -1.19441 45.6783
RightForeArm  22.992 4.97559 7.32584
RightHand  -0.0268312 1.76339 -0.591468
LeftUpLeg  10.3816 -0.127632 6.20978
LeftLeg  43.1382 -1.43459 -0.980913
LeftFoot  -2.66978 0.668345 -9.50564
LeftToes  8.74931e-010 -1.05764e-010 1.2659e-011
536
root  7.40718 37.808 -0.95364 30.0826 -83.8001 -36.5298
RightUpLeg  -17.3774 -7.42446 3.68685
RightLeg  27.7929 -1.35716 -1.02088
RightFoot  -4.07581 0.141944 -2.65634
RightToes  -4.65663e-010 0 -3.6325e-017
Spine  5.64941 -1.15468 11.6576
Spine1  5.20658 0.265558 0.250564
HEad  -21.7755 -1.98542 -1.95457
LeftShoulder1  -0.677986 5.15877 -34.7785
LeftArm  -3.69196 6.98505 -42.9915
LeftForeArm  43.7324 -2.91536 -9.46549
LeftHand  -0.210676 10.6618 -3.24475
RightShoulder  -0.931529 -6.06259 29.8272
RightArm  13.9812 0.492706 45.7767
RightForeArm  20.2232 6.87547 7.22458
RightHand  0.0105054 2.12874 -0.0217934
LeftUpLeg  4.14227 -1.3667 7.02373
LeftLeg  52.3996 0.215951 0.718234
LeftFoot  7.16454 0.897554 -5.57296
LeftToes  8.74931e-010 -1.05764e-010 1.2659e-011
537
root  6.3477 37.9973 -1.15834 25.3522 -83.1336 -31.9854
RightUpLeg  -15.1593 -8.69504 3.71086
RightLeg  27.667 -1.09321 -0.872321
RightFoot  -5.86529 0.095354 -2.83627
RightToes  -4.65663e-010 0 -3.6325e-017
Spine  6.09125 -0.99013 12.4124
Spine1  5.31105 0.801544 -0.241617
HEad  -22.2042 -3.31423 -1.74763
LeftShoulder1  -0.608791 5.0033 -34.4328
LeftArm  -4.40594 9.23381 -41.8099
LeftForeArm  46.5003 -1.71061 -8.8137
LeftHand  -0.250233 10.6151 -4.06472
RightShoulder  -0.927298 -6.05939 29.7076
RightArm  15.1176 2.03101 45.6142
RightForeArm  17.287 10.0512 7.02878
RightHand  0.0189274 2.58447 0.096467
LeftUpLeg  -0.772433 -1.85536 7.02429
LeftLeg  58.8514 0.12775 0.738472
LeftFoot  5.82428 0.5511 -3.88031
LeftToes  8.74931e-010 -1.05764e-010 1.2659e-011
